<?xml version="1.0" encoding="UTF-8"?>
<svg version="1.1" xmlns="http://www.w3.org/2000/svg" width="512" height="512">
<path d="M0 0 C0.99868909 -0.00297112 1.99737819 -0.00594224 3.02633059 -0.0090034 C6.35908455 -0.01764635 9.69180239 -0.01919493 13.02456665 -0.02069092 C15.42015662 -0.02532233 17.81574585 -0.03034742 20.21133423 -0.03573608 C26.71186048 -0.04883371 33.21237985 -0.05533771 39.71291685 -0.05974674 C43.78023756 -0.06251761 47.84755591 -0.06675656 51.91487503 -0.07125092 C63.19913521 -0.08343966 74.48339352 -0.09373856 85.76766014 -0.09712601 C86.48888342 -0.09734557 87.2101067 -0.09756514 87.95318524 -0.09779136 C88.67603937 -0.09800964 89.39889351 -0.09822791 90.14365232 -0.09845281 C91.60818887 -0.09889626 93.07272542 -0.09934282 94.53726196 -0.09979248 C95.2637076 -0.10001391 95.99015323 -0.10023534 96.73861237 -0.10046348 C108.48858398 -0.10440477 120.23849332 -0.12184006 131.98844092 -0.145152 C144.08217627 -0.16895013 156.17588049 -0.18133175 168.26963961 -0.18249393 C175.04751456 -0.18340615 181.82530843 -0.18904286 188.60316086 -0.20731354 C194.98736375 -0.22388814 201.37141365 -0.2259044 207.75563049 -0.21717453 C210.08628883 -0.21640908 212.41695571 -0.22068117 214.74759293 -0.23063278 C258.07962913 -0.40465983 296.27158717 14.14096113 327.37026978 44.66778564 C335.82133285 53.25263113 342.72223089 62.77794547 348.81997681 73.14044189 C349.16657349 73.72519287 349.51317017 74.30994385 349.87026978 74.91241455 C362.01010239 95.68527045 368.98307225 119.22610484 368.9604187 143.32046509 C368.96487538 144.81849873 368.96487538 144.81849873 368.9694221 146.34679568 C368.97806505 149.67954963 368.97961363 153.01226748 368.98110962 156.34503174 C368.98574103 158.7406217 368.99076612 161.13621093 368.99615479 163.53179932 C369.00925242 170.03232557 369.01575642 176.53284494 369.02016544 183.03338194 C369.02293631 187.10070264 369.02717527 191.168021 369.03166962 195.23534012 C369.04385836 206.5196003 369.05415726 217.80385861 369.05754471 229.08812523 C369.05776427 229.80934851 369.05798384 230.53057179 369.05821006 231.27365033 C369.05842834 231.99650446 369.05864662 232.7193586 369.05887151 233.46411741 C369.05931496 234.92865396 369.05976152 236.3931905 369.06021118 237.85772705 C369.06043261 238.58417268 369.06065404 239.31061832 369.06088218 240.05907746 C369.06482347 251.80904907 369.08225876 263.55895841 369.1055707 275.308906 C369.12936883 287.40264135 369.14175045 299.49634558 369.14291263 311.5901047 C369.14382485 318.36797965 369.14946156 325.14577352 369.16773224 331.92362595 C369.18430684 338.30782883 369.1863231 344.69187874 369.17759323 351.07609558 C369.17682778 353.40675392 369.18109987 355.7374208 369.19105148 358.06805801 C369.36507853 401.40009422 354.81945758 439.59205226 324.29263306 470.69073486 C315.70778757 479.14179794 306.18247323 486.04269597 295.81997681 492.14044189 C295.23522583 492.48703857 294.65047485 492.83363525 294.04800415 493.19073486 C273.27514825 505.33056748 249.73431386 512.30353734 225.63995361 512.28088379 C224.64126452 512.28385491 223.64257542 512.28682603 222.61362302 512.28988719 C219.28086907 512.29853014 215.94815122 512.30007872 212.61538696 512.30157471 C210.219797 512.30620611 207.82420777 512.31123121 205.42861938 512.31661987 C198.92809313 512.3297175 192.42757376 512.3362215 185.92703676 512.34063053 C181.85971606 512.3434014 177.7923977 512.34764035 173.72507858 512.3521347 C162.4408184 512.36432345 151.15656009 512.37462235 139.87229347 512.3780098 C138.79045855 512.37833915 138.79045855 512.37833915 137.68676838 512.37867515 C136.96391424 512.37889343 136.2410601 512.3791117 135.49630129 512.3793366 C134.03176474 512.37978005 132.5672282 512.38022661 131.10269165 512.38067627 C130.37624602 512.3808977 129.64980038 512.38111913 128.90134124 512.38134727 C117.15136963 512.38528855 105.40146029 512.40272385 93.6515127 512.42603579 C81.55777735 512.44983392 69.46407312 512.46221554 57.370314 512.46337771 C50.59243905 512.46428994 43.81464518 512.46992664 37.03679276 512.48819733 C30.65258987 512.50477193 24.26853996 512.50678819 17.88432312 512.49805832 C15.55366478 512.49729287 13.2229979 512.50156496 10.89236069 512.51151657 C-32.43967552 512.68554362 -70.63163355 498.13992266 -101.73031616 467.61309814 C-110.18137924 459.02825266 -117.08227727 449.50293832 -123.18002319 439.14044189 C-123.52661987 438.55569092 -123.87321655 437.97093994 -124.23031616 437.36846924 C-139.15366328 411.83265263 -143.96888288 384.22270078 -143.82699585 354.93341064 C-143.83379502 352.5269607 -143.84271086 350.12051597 -143.85354614 347.71408081 C-143.87607264 341.2594098 -143.86761464 334.80514453 -143.85165071 328.35046768 C-143.84267249 324.30057544 -143.84447118 320.25073325 -143.84910202 316.20083618 C-143.84986819 315.52315191 -143.85063435 314.84546765 -143.85142373 314.14724749 C-143.85302277 312.7694531 -143.85464384 311.39165874 -143.85628669 310.0138644 C-143.87045789 297.17115175 -143.8542884 284.32861914 -143.82728486 271.48593605 C-143.80495393 260.5272569 -143.80883651 249.56884283 -143.83187866 238.61016846 C-143.85879081 225.80542442 -143.86908541 213.00083715 -143.85381734 200.19606876 C-143.85222502 198.82406174 -143.85065316 197.45205468 -143.84910202 196.08004761 C-143.84833064 195.40544076 -143.84755927 194.73083391 -143.84676451 194.03578442 C-143.84249339 189.33985864 -143.8498857 184.64406472 -143.86149979 179.94815063 C-143.87611257 173.59803788 -143.86562045 167.2484178 -143.8370285 160.89835739 C-143.83050645 158.58998806 -143.83215941 156.2815761 -143.84334183 153.97322464 C-144.02984188 111.50758545 -129.37532516 73.193066 -99.75082397 42.66778564 C-73.70742027 16.77431011 -36.88675524 -0.03468097 0 0 Z " fill="#2492FE" transform="translate(143.18002319335938,-0.14044189453125)"/>
<path d="M0 0 C0.66 0 1.32 0 2 0 C3.20485783 1.26056767 3.20485783 1.26056767 4.69752502 3.12989807 C9.88253109 9.21526689 15.8114144 14.49832432 21.67287636 19.91729546 C25.4986365 23.45632911 29.31003277 27.01074114 33.12034607 30.56639099 C33.93124282 31.32304389 34.74213957 32.07969679 35.57760894 32.85927856 C46.96567289 43.50554278 58.19360663 54.32034876 69.42108822 65.13542843 C78.53607996 73.90629763 87.7025545 82.6068792 97.01586914 91.16723633 C165.21705326 153.95824093 165.21705326 153.95824093 167.21122456 184.40319538 C167.71695189 197.4513577 165.71763373 210.29894755 162.69707108 222.96199417 C161.68744864 227.36217507 161.0016175 231.79586958 160.32788086 236.25756836 C154.62232554 273.10140004 132.67502037 307.64760919 103 330 C98.48356624 333.24882222 93.79308238 336.17954078 89 339 C88.41524902 339.34659668 87.83049805 339.69319336 87.22802734 340.05029297 C65.74248406 352.60662611 41.90488321 359.11599158 17.0637207 359.17700195 C15.89040192 359.18357315 14.71708313 359.19014435 13.50820923 359.19691467 C9.64739917 359.2165376 5.78662764 359.22828032 1.92578125 359.23828125 C0.59107125 359.24233373 -0.74363855 359.24645079 -2.07834816 359.25063133 C-8.342998 359.26963116 -14.60763635 359.28388096 -20.87230939 359.2922433 C-28.08977134 359.30203958 -35.30692859 359.32844257 -42.52428311 359.36874419 C-48.11683557 359.39889782 -53.70930046 359.41371086 -59.30193263 359.41702431 C-62.6372192 359.41937282 -65.97191826 359.43028646 -69.30716515 359.45348549 C-73.02232893 359.47773915 -76.7366862 359.47693764 -80.4519043 359.4699707 C-82.10324623 359.48918579 -82.10324623 359.48918579 -83.78794861 359.50878906 C-91.22546084 359.45782847 -91.22546084 359.45782847 -95.22175598 357.09562683 C-97 355 -97 355 -97 353 C-97.5678635 352.75703721 -98.13572701 352.51407442 -98.72079849 352.26374912 C-101.43463439 350.75900822 -103.27262615 348.97616342 -105.46722412 346.78001404 C-106.35620895 345.89522369 -107.24519379 345.01043335 -108.16111755 344.09883118 C-109.13843307 343.11603262 -110.11564835 342.13313437 -111.09277344 341.15014648 C-112.12741117 340.1165819 -113.16248176 339.08345048 -114.19795227 338.05072021 C-117.00594109 335.24757616 -119.8076445 332.43822629 -122.60813046 329.62758899 C-125.53700297 326.68993494 -128.47114424 323.75755213 -131.40460205 320.82447815 C-136.32735084 315.90079309 -141.24621186 310.9732511 -146.16259766 306.04321289 C-151.85446637 300.33559726 -157.55156647 294.63324674 -163.25168014 288.93386596 C-168.72910686 283.45704848 -174.20367616 277.9773846 -179.67664337 272.49611092 C-182.00920512 270.16001004 -184.34262198 267.82476817 -186.67668915 265.49017143 C-189.42050035 262.74535939 -192.16176008 259.99802444 -194.90102196 257.24867249 C-195.90961438 256.23714734 -196.91906676 255.22647886 -197.92941475 254.21670723 C-199.30215989 252.8444491 -200.67153939 251.46882652 -202.04071045 250.09300232 C-202.80982128 249.32221564 -203.57893211 248.55142897 -204.37134933 247.75728512 C-206 246 -206 246 -206 245 C-183.23 245 -160.46 245 -137 245 C-137 213.32 -137 181.64 -137 149 C-110.375 148.6875 -110.375 148.6875 -102.12255859 148.61206055 C-83.55717543 148.37592114 -64.85886613 147.6074858 -47.0625 141.8125 C-46.11068848 141.51061768 -45.15887695 141.20873535 -44.17822266 140.89770508 C-21.11535435 133.28488994 -2.425121 118.54835374 9.03369141 96.96875 C18.24618914 78.19927508 19.18876682 56.2234729 15 36 C14.82855469 35.04351562 14.65710938 34.08703125 14.48046875 33.1015625 C12.37386176 22.96266693 7.60890161 13.17287236 1.74609375 4.6484375 C0 2 0 2 0 0 Z " fill="#1E79D3" transform="translate(350,153)"/>
<path d="M0 0 C163.3880597 0 163.3880597 0 195 27 C195.66257812 27.56074219 196.32515625 28.12148437 197.0078125 28.69921875 C214.02376922 44.40929973 222.86776265 67.51760435 224.12451172 90.25244141 C225.02368893 116.04933286 218.22143531 138.47336866 200.48071289 157.63061523 C179.32832357 179.38479988 147.46539753 187.53236433 117.9753418 188.23681641 C110.52340304 188.32589416 103.07712724 188.26223733 95.625 188.1875 C86.83875 188.125625 78.0525 188.06375 69 188 C69 219.68 69 251.36 69 284 C46.23 284 23.46 284 0 284 C0 190.28 0 96.56 0 0 Z " fill="#FDFEFE" transform="translate(144,114)"/>
<path d="M0 0 C12.74625 -0.12375 12.74625 -0.12375 25.75 -0.25 C29.73658691 -0.30462402 29.73658691 -0.30462402 33.80371094 -0.36035156 C35.94725745 -0.37205111 38.09081296 -0.38223992 40.234375 -0.390625 C41.85883545 -0.4213208 41.85883545 -0.4213208 43.51611328 -0.45263672 C55.59267281 -0.45806927 65.60427168 2.95157374 74.5625 11.125 C82.85135232 19.67058669 85.39571389 30.69061356 85.375 42.25 C85.37338867 43.18078369 85.37177734 44.11156738 85.37011719 45.07055664 C85.18999077 55.17088088 82.7537816 64.15792508 75.47265625 71.55078125 C65.03956955 81.08487182 53.32775293 82.32592471 39.6484375 82.1953125 C38.63628174 82.19329834 37.62412598 82.19128418 36.58129883 82.18920898 C32.84581895 82.17884432 29.11040431 82.15092278 25.375 82.125 C17.00125 82.08375 8.6275 82.0425 0 82 C0 54.94 0 27.88 0 0 Z " fill="#165899" transform="translate(213,167)"/>
<path d="M0 0 C0.66 0 1.32 0 2 0 C3.2890625 1.53125 3.2890625 1.53125 4.625 3.5 C5.07101562 4.1496875 5.51703125 4.799375 5.9765625 5.46875 C6.31429688 5.9740625 6.65203125 6.479375 7 7 C3.21875 6.2421875 3.21875 6.2421875 1.25 4.0625 C0 2 0 2 0 0 Z " fill="#296FB5" transform="translate(350,153)"/>
</svg>
